<svg width="15" height="11" viewBox="0 0 15 11" fill="none" xmlns="http://www.w3.org/2000/svg">
<path d="M0.290889 5.29113L5.02514 0.797043C5.179 0.650986 5.42912 0.650986 5.58299 0.797043C5.73685 0.943101 5.73685 1.18054 5.58299 1.3266L1.52258 5.18103H14.3784C14.5962 5.18103 14.7729 5.34881 14.7729 5.55554C14.7729 5.76226 14.5962 5.93004 14.3784 5.93004H1.52258L5.58299 9.78448C5.73685 9.93053 5.73685 10.168 5.58299 10.314C5.50566 10.3874 5.40466 10.4234 5.30367 10.4234C5.20267 10.4234 5.10167 10.3867 5.02435 10.314L0.2901 5.81994C0.136237 5.67388 0.136237 5.43644 0.2901 5.29039L0.290889 5.29113Z" fill="white"/>
</svg>
