<svg width="15" height="11" viewBox="0 0 15 11" fill="none" xmlns="http://www.w3.org/2000/svg">
<path d="M14.7067 5.29113L9.97242 0.797043C9.81856 0.650986 9.56843 0.650986 9.41457 0.797043C9.26071 0.943101 9.26071 1.18054 9.41457 1.3266L13.475 5.18103H0.61913C0.401355 5.18103 0.224609 5.34881 0.224609 5.55554C0.224609 5.76226 0.401355 5.93004 0.61913 5.93004H13.475L9.41457 9.78448C9.26071 9.93053 9.26071 10.168 9.41457 10.314C9.4919 10.3874 9.59289 10.4234 9.69389 10.4234C9.79489 10.4234 9.89589 10.3867 9.97321 10.314L14.7075 5.81994C14.8613 5.67388 14.8613 5.43644 14.7075 5.29039L14.7067 5.29113Z" fill="white"/>
</svg>
