<svg width="25" height="25" viewBox="0 0 25 25" fill="none" xmlns="http://www.w3.org/2000/svg">
<path fill-rule="evenodd" clip-rule="evenodd" d="M5.55556 2.76801C5.55556 4.30214 4.3119 5.54579 2.77778 5.54579C1.24365 5.54579 0 4.30214 0 2.76801C0 1.23389 1.24365 -0.00976562 2.77778 -0.00976562C4.3119 -0.00976562 5.55556 1.23389 5.55556 2.76801ZM5.55556 12.4901C5.55556 14.0242 4.3119 15.2679 2.77778 15.2679C1.24365 15.2679 0 14.0242 0 12.4901C0 10.956 1.24365 9.71232 2.77778 9.71232C4.3119 9.71232 5.55556 10.956 5.55556 12.4901ZM2.77778 24.9904C4.3119 24.9904 5.55556 23.7467 5.55556 22.2126C5.55556 20.6785 4.3119 19.4348 2.77778 19.4348C1.24365 19.4348 0 20.6785 0 22.2126C0 23.7467 1.24365 24.9904 2.77778 24.9904ZM15.2778 2.76801C15.2778 4.30214 14.0341 5.54579 12.5 5.54579C10.9659 5.54579 9.72224 4.30214 9.72224 2.76801C9.72224 1.23389 10.9659 -0.00976562 12.5 -0.00976562C14.0341 -0.00976562 15.2778 1.23389 15.2778 2.76801ZM12.5 15.2679C14.0341 15.2679 15.2778 14.0242 15.2778 12.4901C15.2778 10.956 14.0341 9.71232 12.5 9.71232C10.9659 9.71232 9.72224 10.956 9.72224 12.4901C9.72224 14.0242 10.9659 15.2679 12.5 15.2679ZM15.2778 22.2126C15.2778 23.7467 14.0341 24.9904 12.5 24.9904C10.9659 24.9904 9.72224 23.7467 9.72224 22.2126C9.72224 20.6785 10.9659 19.4348 12.5 19.4348C14.0341 19.4348 15.2778 20.6785 15.2778 22.2126ZM22.2222 5.54579C23.7563 5.54579 25 4.30214 25 2.76801C25 1.23389 23.7563 -0.00976562 22.2222 -0.00976562C20.6881 -0.00976562 19.4444 1.23389 19.4444 2.76801C19.4444 4.30214 20.6881 5.54579 22.2222 5.54579ZM25 12.4901C25 14.0242 23.7563 15.2679 22.2222 15.2679C20.6881 15.2679 19.4444 14.0242 19.4444 12.4901C19.4444 10.956 20.6881 9.71232 22.2222 9.71232C23.7563 9.71232 25 10.956 25 12.4901ZM22.2222 24.9904C23.7563 24.9904 25 23.7467 25 22.2126C25 20.6785 23.7563 19.4348 22.2222 19.4348C20.6881 19.4348 19.4444 20.6785 19.4444 22.2126C19.4444 23.7467 20.6881 24.9904 22.2222 24.9904Z" fill="white"/>
</svg>
