<svg width="199" height="166" viewBox="0 0 199 166" fill="none" xmlns="http://www.w3.org/2000/svg">
<path d="M98.4146 106.814C99.5065 103.386 99.8917 100.713 101.173 98.5136C103.526 94.4598 106.537 90.7567 109.038 86.788C113.423 79.8471 117.481 72.718 121.972 65.838C124.511 61.9455 127.206 57.9921 130.609 54.8015C134.6 51.0616 140.227 50.9257 144.162 53.4212C148.506 56.1798 150.007 61.4673 147.313 66.8278C145.593 70.2628 143.467 73.7645 140.646 76.4158C131.672 84.8415 122.346 92.9408 113.025 101.03C110.64 103.099 107.933 104.97 105.073 106.383C103.583 107.138 101.414 106.682 98.4146 106.814Z" fill="#EDBC5A"/>
<path d="M40.0774 101.346C39.1366 101.679 37.9949 102.456 36.9964 102.318C35.9663 102.163 34.6047 101.311 34.228 100.439C33.314 98.3157 32.7304 96.0408 32.291 93.7669C29.7308 80.4547 27.1942 67.1288 24.8145 53.7839C24.3505 51.1682 24.2041 48.3529 24.6992 45.7562C25.6424 40.8365 30.1633 37.1967 34.8172 36.9514C39.4095 36.7116 44.0179 40.1138 45.5964 44.9683C45.9587 46.0643 46.2652 47.2238 46.3065 48.3673C46.8691 65.0505 45.9705 81.6168 41.6322 97.8977C41.3492 99.0049 40.6912 100.019 40.0774 101.346Z" fill="#EDBC5A"/>
<path d="M172.819 120.704C171.208 121.757 168.76 124.035 165.822 125.145C155.166 129.189 144.355 132.87 133.573 136.595C132.059 137.118 130.354 137.243 128.726 137.317C126.666 137.429 124.261 137.316 123.813 135.01C123.573 133.793 124.618 132.182 125.458 130.999C126.1 130.098 127.333 129.538 128.357 128.898C138.298 122.736 148.191 116.491 158.25 110.506C160.959 108.897 164.098 107.726 167.211 107.017C170.079 106.373 172.965 107.132 174.657 109.867C176.216 112.403 176.323 114.99 174.821 117.595C174.426 118.295 173.968 118.934 172.819 120.704Z" fill="#EDBC5A"/>
</svg>
