<svg width="279" height="296" viewBox="0 0 279 296" fill="none" xmlns="http://www.w3.org/2000/svg">
<path d="M148.071 156.434C148.35 159.577 142.518 161.299 139.495 156.434C136.228 152.136 138.631 142.156 148.071 139.275C156.963 135.864 171.032 142.412 173.798 156.434C177.321 169.916 166.682 188.105 148.071 190.753C130.039 194.397 107.693 179.639 105.193 156.434C101.404 133.794 120.319 107.342 148.071 104.956C175.284 101.05 205.835 124.065 208.1 156.434C212.13 188.236 185.003 222.947 148.071 225.071C111.684 229.238 72.9006 197.96 70.8915 156.434C66.6118 115.448 101.965 72.522 148.071 70.6373C193.595 66.2358 240.66 105.723 242.402 156.434C246.943 206.578 203.331 257.767 148.071 259.389C93.3671 264.053 38.092 216.307 36.5893 156.434C31.8141 97.1283 83.6328 37.6859 148.071 36.3187C211.933 31.3942 275.463 87.4044 276.704 156.434C281.746 224.924 221.663 292.581 148.071 293.709C75.0567 298.873 3.2671 234.647 2.28709 156.434C-2.99433 78.7866 65.3105 2.86611 148.071 2" stroke="white" stroke-opacity="0.2" stroke-width="3" stroke-linecap="round"/>
</svg>
