<svg width="325" height="308" viewBox="0 0 325 308" fill="none" xmlns="http://www.w3.org/2000/svg">
<path d="M162.225 0L162.256 153.646L224.226 11.7071L162.315 153.67L276.788 45.0464L162.36 153.712L311.909 94.9416L162.384 153.768L324.241 153.798L162.384 153.828L311.909 212.654L162.36 153.883L276.788 262.549L162.315 153.926L224.226 295.888L162.256 153.949L162.225 307.596L162.194 153.949L100.224 295.888L162.135 153.926L47.6621 262.549L162.09 153.883L12.5412 212.654L162.066 153.828L0.208496 153.798L162.066 153.768L12.5412 94.9416L162.09 153.712L47.6621 45.0464L162.135 153.67L100.224 11.7071L162.194 153.646L162.225 0Z" stroke="white" stroke-opacity="0.1" stroke-width="3"/>
</svg>
